<svg version="1.0" xmlns="http://www.w3.org/2000/svg" width="790.667" height="794.667" viewBox="0 0 593 596">
  <path d="M266 3.1c-37.4 3.8-79.3 17.1-111.7 35.2C128.2 53 109.9 67 88 88.9c-48 48-76.6 107.3-84.5 174.7-2 16.8-2 50 0 66.8 11.6 99.1 71.1 184.7 160 230.1 27.5 14.1 58.5 23.9 91.5 29 14.3 2.3 53.2 3.1 69.7 1.6 70.1-6.6 134.6-37.6 184-88.4 29.7-30.6 50.8-64.1 65.7-104.1 7.7-20.5 14.3-49.2 16.5-72 1.4-14.1 1.4-45.1 0-59.2-9.2-93.3-62.2-176-144.3-225-35.2-21.1-78.3-35.2-120-39.3-12.6-1.3-48.1-1.2-60.6 0zm62.9 38.5C364 45.7 401.5 59 432 78c32.3 20.1 62.9 50.7 83.8 83.6 19.4 30.7 32.5 68.7 37.3 107.9 1.4 11.6 1.4 43.5 0 55-7.5 60.9-31.9 111.4-74.5 154.1-21.4 21.3-41.2 35.8-66.6 48.5-57.3 28.8-122.4 35-184.5 17.7-42.2-11.7-79.8-34-112.1-66.2C65.7 428.8 39.9 366.8 39.9 297c0-41.9 8.4-77.7 27.1-114.9 13-26 26.9-45.1 48.4-66.7C137 93.9 156.1 80 182.1 67c46.3-23.3 94.4-31.6 146.8-25.4z"/>
  <path d="M211.8 176c-14.1 7.5-24 38-22.5 69.4 1.9 40.8 19.7 67.3 38.6 57.7 14-7.2 23.1-32.5 23.1-64.1 0-19.6-3.3-35.9-9.9-48.9-2.7-5.2-9.5-12.7-13.2-14.7-3.9-2-11.7-1.7-16.1.6zM365.5 175.8c-13.9 8.5-22.5 32.8-22.5 63.2 0 20.8 3.8 38.8 10.7 50.8 13.3 23.2 33.4 19.3 44.1-8.6 14.3-36.9 5.6-94.3-15.8-105.2-5-2.5-12.5-2.6-16.5-.2z"/>
  <path d="M127 294.9c-10.8 3.7-47.7 17.4-49.8 18.5-6.3 3.3-9.5 9-9.5 16.8 0 4.5.5 6.5 2.7 9.8 5.6 8.6 13.6 10.7 25.2 6.7 6.6-2.3 7.4-2.4 7.4-.9 0 .9 2.1 7.8 4.6 15.2 27.3 81.6 103.2 136 189.6 136 86.2-.1 161.9-54.5 189.2-136 2.5-7.4 4.6-14.3 4.6-15.2 0-1.5.7-1.4 7 .8 7.8 2.7 9.8 2.9 15.5 1.3 11.4-3.2 16.8-19.3 9.8-28.8-3.5-4.5-6.7-6.1-31.4-15.3-26.7-9.9-32.9-11.1-39.6-7.5-5 2.6-8.5 8-9.1 13.7-1 10.7 2.7 17.1 12.3 21.1 3.4 1.4 5.5 2.9 5.5 3.8 0 3.4-9.1 28.3-13.4 36.9-23.4 46.5-65.8 79.1-117.6 90.4-9.2 2-13.3 2.3-33 2.3s-23.8-.3-33-2.3c-24.2-5.3-48.5-16.2-67.1-30.1-12.5-9.4-29-26.3-37.8-38.6-10.4-14.8-22.9-42.5-25.6-56.7-.6-3.4-.5-3.5 4-5.2 9.4-3.6 13.5-9.3 13.5-18.8 0-6.6-2.4-11.4-7.6-15.1-4.2-3-12-4.3-16.4-2.8z"/>
</svg>
